<svg width="2113" height="503" viewBox="0 0 2113 503" fill="none" xmlns="http://www.w3.org/2000/svg">
<path d="M499 12H553.359L701.439 206.874V12H759.754V303.789H705.187L557.316 108.916V303.789H499V12Z" fill="white"/>
<path d="M1009.12 202.497C1009.12 209.583 1008.77 215.697 1008.08 220.838H865.204C867.981 234.872 873.951 245.362 883.115 252.31C892.279 259.257 903.526 262.731 916.855 262.731C925.602 262.731 934.489 261.063 943.514 257.728C952.539 254.255 960.661 249.461 967.881 243.347L999.747 278.362C977.531 298.787 948.859 309 913.731 309C893.32 309 875.132 304.623 859.164 295.869C843.336 287.116 830.978 274.749 822.092 258.771C813.345 242.653 808.971 224.173 808.971 203.331C808.971 182.349 813.275 163.8 821.884 147.682C830.492 131.425 842.503 118.851 857.915 109.958C873.465 100.926 891.168 96.4105 911.023 96.4105C930.184 96.4105 947.193 100.857 962.05 109.749C976.906 118.642 988.431 131.147 996.622 147.265C1004.95 163.383 1009.12 181.794 1009.12 202.497ZM954.552 183.739C952.053 170.817 946.985 160.882 939.348 153.935C931.85 146.848 922.27 143.305 910.607 143.305C898.111 143.305 888.044 146.848 880.408 153.935C872.91 160.882 867.842 170.817 865.204 183.739H954.552Z" fill="white"/>
<path d="M1147.67 309C1130.03 309 1114 305.735 1099.56 299.204C1085.12 292.674 1073.59 282.6 1064.98 268.983C1056.38 255.227 1052.07 238.137 1052.07 217.712V101.829H1106.43V212.918C1106.43 228.341 1110.18 239.804 1117.68 247.307C1125.17 254.672 1135.17 258.354 1147.67 258.354C1155.72 258.354 1162.8 256.756 1168.91 253.56C1175.16 250.364 1180.02 245.432 1183.49 238.762C1187.1 231.954 1188.9 223.339 1188.9 212.918V101.829H1243.05V217.712C1243.05 238.137 1238.75 255.227 1230.14 268.983C1221.53 282.6 1210.01 292.674 1195.57 299.204C1181.13 305.735 1165.16 309 1147.67 309Z" fill="white"/>
<path d="M1460.03 287.741C1450.17 294.549 1439.89 299.829 1429.2 303.581C1418.51 307.194 1406.5 309 1393.17 309C1368.32 309 1349.5 302.122 1336.73 288.366C1323.96 274.611 1317.57 254.602 1317.57 228.341V150.183H1278.62V101.829H1317.57V41.8042H1371.93V101.829H1445.03V150.183H1371.93V223.964C1371.93 235.914 1374.64 244.667 1380.05 250.225C1385.6 255.644 1392.96 258.354 1402.13 258.354C1408.1 258.354 1414.35 257.173 1420.87 254.811C1427.4 252.309 1433.78 249.114 1440.03 245.223L1460.03 287.741Z" fill="white"/>
<path d="M1602.61 96.4105C1613.44 96.4105 1622.88 97.8695 1630.93 100.787L1622.81 154.768C1618.37 152.823 1613.16 151.295 1607.19 150.183C1601.22 148.933 1595.46 148.307 1589.9 148.307C1581.29 148.307 1573.8 150.114 1567.41 153.726C1561.02 157.2 1556.09 162.341 1552.62 169.149C1549.15 175.958 1547.42 184.156 1547.42 193.743V303.789H1493.06V101.829H1545.75V123.714C1558.11 105.512 1577.06 96.4105 1602.61 96.4105Z" fill="white"/>
<path d="M1757.49 309C1736.94 309 1718.33 304.415 1701.67 295.244C1685.15 285.935 1672.16 273.221 1662.72 257.103C1653.28 240.846 1648.56 222.714 1648.56 202.705C1648.56 182.697 1653.28 164.634 1662.72 148.516C1672.16 132.259 1685.15 119.545 1701.67 110.375C1718.33 101.065 1736.94 96.4105 1757.49 96.4105C1778.17 96.4105 1796.85 101.065 1813.51 110.375C1830.17 119.545 1843.22 132.259 1852.66 148.516C1862.11 164.634 1866.83 182.697 1866.83 202.705C1866.83 222.714 1862.11 240.846 1852.66 257.103C1843.22 273.221 1830.17 285.935 1813.51 295.244C1796.85 304.415 1778.17 309 1757.49 309ZM1757.49 258.354C1767.62 258.354 1776.79 255.992 1784.98 251.267C1793.17 246.543 1799.56 239.943 1804.14 231.467C1808.86 222.992 1811.22 213.404 1811.22 202.705C1811.22 192.006 1808.86 182.419 1804.14 173.943C1799.56 165.467 1793.17 158.867 1784.98 154.143C1776.79 149.419 1767.62 147.057 1757.49 147.057C1747.35 147.057 1738.19 149.419 1729.99 154.143C1721.94 158.867 1715.55 165.467 1710.83 173.943C1706.25 182.419 1703.96 192.006 1703.96 202.705C1703.96 213.404 1706.25 222.992 1710.83 231.467C1715.55 239.943 1721.94 246.543 1729.99 251.267C1738.19 255.992 1747.35 258.354 1757.49 258.354Z" fill="white"/>
<path d="M2023.48 96.4105C2038.62 96.4105 2052.15 99.7453 2064.09 106.415C2076.04 112.945 2085.34 122.185 2092 134.135C2098.67 146.084 2102 159.771 2102 175.194V303.789H2047.64V192.701C2047.64 178.251 2044.17 167.135 2037.23 159.354C2030.42 151.434 2020.77 147.474 2008.28 147.474C2000.23 147.474 1992.94 149.28 1986.41 152.893C1980.02 156.366 1974.96 161.577 1971.21 168.524C1967.46 175.333 1965.58 183.531 1965.58 193.118V303.789H1911.22V101.829H1964.13V125.589C1970.93 115.446 1979.4 108.082 1989.53 103.497C1999.81 98.7726 2011.12 96.4105 2023.48 96.4105Z" fill="white"/>
<path d="M551.014 372.866C558.493 372.866 564.876 374.061 570.164 376.449C575.452 378.838 579.477 382.302 582.24 386.84C585.003 391.331 586.384 396.705 586.384 402.963C586.384 409.222 585.003 414.62 582.24 419.158C579.477 423.649 575.452 427.089 570.164 429.477C564.876 431.866 558.493 433.06 551.014 433.06H525.576V473.19H513V372.866H551.014ZM550.728 421.165C558.159 421.165 563.781 419.66 567.592 416.65C571.402 413.593 573.308 409.031 573.308 402.963C573.308 396.896 571.402 392.358 567.592 389.348C563.781 386.291 558.159 384.762 550.728 384.762H525.576V421.165H550.728Z" fill="white"/>
<path d="M637.272 403.68C639.749 403.68 641.988 403.871 643.989 404.253C645.99 404.588 647.895 405.137 649.705 405.901L646.847 417.439C645.275 416.579 643.441 415.934 641.345 415.504C639.249 415.026 637.201 414.787 635.2 414.787C631.723 414.787 628.65 415.647 625.982 417.367C623.315 419.087 621.243 421.499 619.766 424.605C618.289 427.662 617.551 431.221 617.551 435.282V473.19H605.904V405.113H617.408V413.999C619.79 410.703 622.696 408.171 626.125 406.403C629.555 404.588 633.271 403.68 637.272 403.68Z" fill="white"/>
<path d="M693.709 474.623C686.945 474.623 680.824 473.07 675.346 469.965C669.915 466.86 665.628 462.608 662.484 457.21C659.387 451.811 657.839 445.792 657.839 439.151C657.839 432.511 659.387 426.492 662.484 421.093C665.628 415.695 669.915 411.443 675.346 408.338C680.824 405.233 686.945 403.68 693.709 403.68C700.474 403.68 706.595 405.233 712.073 408.338C717.552 411.443 721.839 415.695 724.935 421.093C728.079 426.492 729.651 432.511 729.651 439.151C729.651 445.792 728.079 451.811 724.935 457.21C721.839 462.608 717.552 466.86 712.073 469.965C706.595 473.07 700.474 474.623 693.709 474.623ZM693.709 463.659C698.187 463.659 702.236 462.608 705.857 460.506C709.525 458.404 712.407 455.49 714.503 451.763C716.599 448.037 717.647 443.833 717.647 439.151C717.647 434.47 716.599 430.29 714.503 426.611C712.407 422.885 709.525 419.971 705.857 417.869C702.236 415.767 698.187 414.716 693.709 414.716C689.184 414.716 685.087 415.767 681.419 417.869C677.799 419.971 674.941 422.885 672.845 426.611C670.796 430.29 669.772 434.47 669.772 439.151C669.772 443.833 670.796 448.037 672.845 451.763C674.941 455.49 677.823 458.404 681.491 460.506C685.159 462.608 689.232 463.659 693.709 463.659Z" fill="white"/>
<path d="M813.684 370V473.19H801.966V464.089C799.203 467.433 795.821 470.037 791.819 471.9C787.818 473.715 783.221 474.623 778.028 474.623C771.74 474.623 766 473.094 760.808 470.037C755.663 466.979 751.59 462.751 748.589 457.353C745.588 451.955 744.087 445.887 744.087 439.151C744.087 432.415 745.588 426.348 748.589 420.95C751.59 415.552 755.663 411.324 760.808 408.266C766 405.209 771.74 403.68 778.028 403.68C783.221 403.68 787.818 404.612 791.819 406.475C795.821 408.29 799.203 410.87 801.966 414.214V370H813.684ZM779.386 463.659C783.864 463.659 787.865 462.608 791.39 460.506C794.963 458.356 797.726 455.418 799.679 451.692C801.68 447.966 802.68 443.785 802.68 439.151C802.68 434.565 801.68 430.409 799.679 426.683C797.726 422.956 794.963 420.042 791.39 417.94C787.865 415.79 783.864 414.716 779.386 414.716C774.765 414.716 770.692 415.814 767.167 418.012C763.642 420.162 760.903 423.1 758.95 426.826C756.997 430.504 756.02 434.613 756.02 439.151C756.02 443.642 756.997 447.774 758.95 451.548C760.951 455.275 763.714 458.237 767.239 460.434C770.811 462.584 774.861 463.659 779.386 463.659Z" fill="white"/>
<path d="M868.426 474.623C862.804 474.623 857.636 473.524 852.92 471.327C848.251 469.129 844.512 465.785 841.701 461.294C838.891 456.804 837.486 451.262 837.486 444.669V405.113H849.204V443.594C849.204 448.085 850.014 451.835 851.634 454.845C853.301 457.855 855.564 460.076 858.422 461.509C861.328 462.942 864.662 463.659 868.426 463.659C872.236 463.659 875.571 462.942 878.429 461.509C881.335 460.076 883.598 457.855 885.217 454.845C886.885 451.835 887.718 448.085 887.718 443.594V405.113H899.437V444.669C899.437 451.262 898.032 456.804 895.221 461.294C892.411 465.785 888.647 469.129 883.931 471.327C879.215 473.524 874.047 474.623 868.426 474.623Z" fill="white"/>
<path d="M953.486 474.623C946.626 474.623 940.505 473.094 935.122 470.037C929.787 466.931 925.642 462.68 922.689 457.281C919.735 451.883 918.259 445.84 918.259 439.151C918.259 432.463 919.735 426.42 922.689 421.022C925.642 415.623 929.787 411.395 935.122 408.338C940.505 405.233 946.626 403.68 953.486 403.68C958.583 403.68 963.299 404.612 967.634 406.475C972.017 408.29 975.708 410.941 978.709 414.429L971.207 422.383C968.634 419.851 965.871 417.94 962.918 416.65C959.964 415.36 956.725 414.716 953.2 414.716C948.865 414.716 944.935 415.767 941.41 417.869C937.933 419.971 935.193 422.885 933.193 426.611C931.192 430.29 930.192 434.47 930.192 439.151C930.192 443.833 931.192 448.037 933.193 451.763C935.193 455.49 937.933 458.404 941.41 460.506C944.935 462.608 948.865 463.659 953.2 463.659C956.678 463.659 959.964 462.966 963.061 461.581C966.205 460.148 969.015 458.237 971.493 455.848L978.709 463.946C975.661 467.385 971.945 470.037 967.563 471.9C963.228 473.715 958.535 474.623 953.486 474.623Z" fill="white"/>
<path d="M1047.17 467.887C1044.36 469.941 1041.26 471.589 1037.88 472.831C1034.5 474.026 1030.83 474.623 1026.88 474.623C1019.3 474.623 1013.49 472.521 1009.44 468.317C1005.39 464.065 1003.37 457.687 1003.37 449.184V415.79H988.864V405.113H1003.37V383.759H1015.09V405.113H1043.6V415.79H1015.09V448.969C1015.09 453.889 1016.23 457.568 1018.52 460.004C1020.85 462.441 1023.97 463.659 1027.88 463.659C1030.31 463.659 1032.71 463.253 1035.1 462.441C1037.52 461.629 1039.74 460.506 1041.74 459.073L1047.17 467.887Z" fill="white"/>
<path d="M1140.52 372.866C1151.19 372.866 1160.53 374.921 1168.53 379.029C1176.53 383.138 1182.7 388.99 1187.04 396.586C1191.37 404.134 1193.54 412.948 1193.54 423.028C1193.54 433.108 1191.37 441.946 1187.04 449.542C1182.7 457.09 1176.53 462.918 1168.53 467.027C1160.53 471.135 1151.19 473.19 1140.52 473.19H1102.36V372.866H1140.52ZM1140.52 461.223C1149.09 461.223 1156.36 459.646 1162.31 456.493C1168.27 453.292 1172.75 448.825 1175.75 443.093C1178.8 437.36 1180.32 430.672 1180.32 423.028C1180.32 415.337 1178.8 408.624 1175.75 402.892C1172.75 397.159 1168.27 392.716 1162.31 389.563C1156.36 386.41 1149.09 384.834 1140.52 384.834H1114.94V461.223H1140.52Z" fill="white"/>
<path d="M1275.19 438.936C1275.19 439.653 1275.14 440.465 1275.05 441.373C1275 442.281 1274.97 442.925 1274.97 443.308H1221.6C1222.12 447.894 1223.45 451.763 1225.6 454.916C1227.79 458.069 1230.53 460.434 1233.82 462.011C1237.1 463.587 1240.72 464.376 1244.68 464.376C1248.54 464.376 1252.25 463.683 1255.82 462.297C1259.4 460.864 1262.66 458.858 1265.61 456.278L1271.83 464.304C1267.83 468.03 1263.52 470.682 1258.9 472.258C1254.32 473.835 1249.35 474.623 1243.96 474.623C1237.29 474.623 1231.34 473.142 1226.1 470.18C1220.91 467.218 1216.83 463.062 1213.88 457.711C1210.97 452.313 1209.52 446.126 1209.52 439.151C1209.52 432.272 1210.97 426.157 1213.88 420.807C1216.79 415.408 1220.79 411.204 1225.88 408.194C1231.03 405.185 1236.82 403.68 1243.25 403.68C1249.35 403.68 1254.8 405.185 1259.61 408.194C1264.47 411.156 1268.26 415.313 1270.97 420.663C1273.74 425.966 1275.14 432.057 1275.19 438.936ZM1263.26 433.849C1262.78 429.883 1261.64 426.42 1259.83 423.458C1258.02 420.448 1255.66 418.131 1252.75 416.507C1249.89 414.883 1246.65 414.071 1243.03 414.071C1239.13 414.071 1235.67 414.907 1232.67 416.579C1229.67 418.203 1227.24 420.52 1225.38 423.53C1223.57 426.492 1222.36 429.931 1221.74 433.849H1263.26Z" fill="white"/>
<path d="M1317 474.623C1312.19 474.623 1307.23 473.954 1302.14 472.616C1297.09 471.231 1292.51 468.986 1288.42 465.88L1293.85 457.138C1296.75 459.383 1300.04 461.151 1303.71 462.441C1307.38 463.731 1311.83 464.376 1317.07 464.376C1320.79 464.376 1323.98 463.993 1326.65 463.229C1329.36 462.417 1331.43 461.223 1332.86 459.646C1334.34 458.07 1335.08 456.182 1335.08 453.985C1335.08 448.921 1330.53 445.816 1321.43 444.669L1313.57 443.738C1306.09 442.83 1300.45 440.752 1296.63 437.503C1292.87 434.207 1290.99 429.931 1290.99 424.676C1290.99 420.377 1292.11 416.65 1294.35 413.497C1296.59 410.344 1299.75 407.932 1303.85 406.26C1308 404.588 1312.81 403.752 1318.29 403.752C1323.57 403.752 1328.57 404.42 1333.29 405.758C1338.01 407.048 1342.03 408.839 1345.37 411.133L1340.36 420.233C1338.79 419.182 1336.84 418.179 1334.51 417.224C1332.22 416.268 1329.67 415.48 1326.86 414.859C1324.05 414.238 1321.24 413.927 1318.43 413.927C1315.38 413.927 1312.69 414.357 1310.35 415.217C1308.07 416.029 1306.28 417.2 1304.99 418.728C1303.76 420.209 1303.14 421.977 1303.14 424.031C1303.14 426.659 1304.23 428.665 1306.42 430.051C1308.66 431.436 1311.95 432.415 1316.28 432.989L1324.14 433.992C1331.58 435.043 1337.24 437.145 1341.15 440.298C1345.1 443.451 1347.08 447.774 1347.08 453.268C1347.08 457.568 1345.84 461.342 1343.37 464.591C1340.94 467.791 1337.46 470.275 1332.93 472.043C1328.41 473.763 1323.1 474.623 1317 474.623Z" fill="white"/>
<path d="M1377.18 473.19H1365.53V405.113H1377.18V473.19ZM1371.25 389.348C1369.72 389.348 1368.32 388.99 1367.03 388.273C1365.79 387.557 1364.82 386.577 1364.1 385.335C1363.39 384.093 1363.03 382.708 1363.03 381.179C1363.03 379.602 1363.39 378.193 1364.1 376.951C1364.82 375.661 1365.79 374.658 1367.03 373.941C1368.32 373.177 1369.72 372.795 1371.25 372.795C1372.82 372.795 1374.22 373.177 1375.46 373.941C1376.75 374.658 1377.75 375.661 1378.46 376.951C1379.23 378.193 1379.61 379.602 1379.61 381.179C1379.61 382.708 1379.23 384.093 1378.46 385.335C1377.75 386.577 1376.75 387.557 1375.46 388.273C1374.22 388.99 1372.82 389.348 1371.25 389.348Z" fill="white"/>
<path d="M1465.48 405.113V468.46C1465.48 475.674 1463.98 481.86 1460.98 487.02C1457.98 492.227 1453.74 496.192 1448.26 498.915C1442.83 501.638 1436.54 503 1429.39 503C1424.06 503 1418.84 502.212 1413.75 500.635C1408.65 499.106 1404.39 496.957 1400.96 494.186L1406.6 485.085C1409.84 487.33 1413.41 489.098 1417.32 490.388C1421.22 491.678 1425.25 492.323 1429.39 492.323C1434.3 492.323 1438.56 491.415 1442.18 489.6C1445.85 487.784 1448.69 485.133 1450.69 481.645C1452.74 478.158 1453.76 473.93 1453.76 468.962V462.942C1451.14 466.286 1447.85 468.89 1443.9 470.753C1439.99 472.616 1435.49 473.548 1430.39 473.548C1424.06 473.548 1418.34 472.091 1413.25 469.177C1408.15 466.215 1404.12 462.082 1401.17 456.78C1398.26 451.429 1396.81 445.362 1396.81 438.578C1396.81 431.794 1398.26 425.751 1401.17 420.448C1404.12 415.145 1408.15 411.037 1413.25 408.123C1418.34 405.161 1424.06 403.68 1430.39 403.68C1435.49 403.68 1439.99 404.612 1443.9 406.475C1447.85 408.338 1451.14 410.941 1453.76 414.286V405.113H1465.48ZM1431.75 462.512C1436.18 462.512 1440.14 461.485 1443.61 459.431C1447.14 457.329 1449.88 454.463 1451.83 450.832C1453.78 447.153 1454.76 443.069 1454.76 438.578C1454.76 434.087 1453.78 430.027 1451.83 426.396C1449.88 422.765 1447.14 419.923 1443.61 417.869C1440.14 415.767 1436.18 414.716 1431.75 414.716C1427.23 414.716 1423.2 415.79 1419.68 417.94C1416.2 420.042 1413.51 422.909 1411.6 426.539C1409.7 430.17 1408.74 434.183 1408.74 438.578C1408.74 443.021 1409.7 447.058 1411.6 450.689C1413.51 454.319 1416.2 457.21 1419.68 459.359C1423.2 461.461 1427.23 462.512 1431.75 462.512Z" fill="white"/>
<path d="M1523.96 403.68C1529.48 403.68 1534.39 404.827 1538.68 407.12C1542.96 409.365 1546.3 412.542 1548.68 416.65C1551.06 420.759 1552.25 425.512 1552.25 430.911V473.19H1540.53V434.709C1540.53 430.552 1539.8 426.993 1538.32 424.031C1536.84 421.022 1534.7 418.728 1531.89 417.152C1529.12 415.575 1525.79 414.787 1521.88 414.787C1518.12 414.787 1514.71 415.623 1511.67 417.295C1508.66 418.92 1506.28 421.284 1504.52 424.39C1502.76 427.447 1501.88 430.982 1501.88 434.995V473.19H1490.16V405.113H1501.73V413.999C1504.4 410.416 1507.69 407.812 1511.59 406.188C1515.5 404.516 1519.62 403.68 1523.96 403.68Z" fill="white"/>
<path d="M1650.02 474.623C1645.31 474.623 1640.52 474.097 1635.66 473.046C1630.8 471.995 1626.18 470.49 1621.8 468.532C1617.46 466.573 1613.72 464.256 1610.58 461.581L1617.44 451.548C1619.77 453.603 1622.68 455.466 1626.16 457.138C1629.68 458.81 1633.52 460.148 1637.66 461.151C1641.81 462.154 1645.93 462.656 1650.02 462.656C1655.07 462.656 1659.6 461.987 1663.6 460.649C1667.65 459.264 1670.84 457.281 1673.17 454.701C1675.51 452.074 1676.68 448.921 1676.68 445.242C1676.68 442.185 1675.77 439.629 1673.96 437.575C1672.2 435.473 1669.58 433.777 1666.1 432.487C1662.62 431.197 1658.22 430.218 1652.88 429.549L1643.31 428.402C1634.3 427.256 1627.13 424.533 1621.8 420.233C1616.46 415.886 1613.79 409.675 1613.79 401.602C1613.79 395.344 1615.49 389.945 1618.87 385.407C1622.25 380.821 1626.82 377.357 1632.59 375.016C1638.4 372.628 1644.88 371.433 1652.02 371.433C1659.22 371.433 1665.74 372.389 1671.6 374.3C1677.51 376.21 1682.99 378.91 1688.04 382.397L1681.61 392.644C1677.32 389.73 1672.67 387.461 1667.67 385.837C1662.72 384.212 1657.48 383.4 1651.95 383.4C1647.09 383.4 1642.76 384.117 1638.95 385.55C1635.14 386.936 1632.16 388.942 1630.02 391.57C1627.92 394.197 1626.87 397.278 1626.87 400.814C1626.87 405.304 1628.73 408.816 1632.44 411.348C1636.16 413.832 1641.81 415.528 1649.38 416.435L1658.31 417.51C1667.79 418.657 1675.39 421.332 1681.11 425.536C1686.87 429.74 1689.75 435.951 1689.75 444.168C1689.75 450.617 1687.97 456.135 1684.39 460.721C1680.87 465.307 1676.1 468.771 1670.1 471.112C1664.1 473.452 1657.41 474.623 1650.02 474.623Z" fill="white"/>
<path d="M1772.21 405.113L1717.41 502.212H1704.47L1729.55 458.643L1698.61 405.113H1711.69L1736.13 446.891L1759.35 405.113H1772.21Z" fill="white"/>
<path d="M1807.41 474.623C1802.6 474.623 1797.65 473.954 1792.55 472.616C1787.5 471.231 1782.93 468.986 1778.83 465.88L1784.26 457.138C1787.17 459.383 1790.46 461.151 1794.12 462.441C1797.79 463.731 1802.25 464.376 1807.49 464.376C1811.2 464.376 1814.39 463.993 1817.06 463.229C1819.78 462.417 1821.85 461.223 1823.28 459.646C1824.75 458.07 1825.49 456.182 1825.49 453.985C1825.49 448.921 1820.94 445.816 1811.84 444.669L1803.98 443.738C1796.51 442.83 1790.86 440.752 1787.05 437.503C1783.29 434.207 1781.4 429.931 1781.4 424.676C1781.4 420.377 1782.52 416.65 1784.76 413.497C1787 410.344 1790.17 407.932 1794.27 406.26C1798.41 404.588 1803.22 403.752 1808.7 403.752C1813.99 403.752 1818.99 404.42 1823.71 405.758C1828.42 407.048 1832.45 408.839 1835.78 411.133L1830.78 420.233C1829.21 419.182 1827.25 418.179 1824.92 417.224C1822.63 416.268 1820.09 415.48 1817.27 414.859C1814.46 414.238 1811.65 413.927 1808.84 413.927C1805.79 413.927 1803.1 414.357 1800.77 415.217C1798.48 416.029 1796.7 417.2 1795.41 418.728C1794.17 420.209 1793.55 421.977 1793.55 424.031C1793.55 426.659 1794.65 428.665 1796.84 430.051C1799.08 431.436 1802.36 432.415 1806.7 432.989L1814.56 433.992C1821.99 435.043 1827.66 437.145 1831.57 440.298C1835.52 443.451 1837.5 447.774 1837.5 453.268C1837.5 457.568 1836.26 461.342 1833.78 464.591C1831.35 467.791 1827.87 470.275 1823.35 472.043C1818.82 473.763 1813.51 474.623 1807.41 474.623Z" fill="white"/>
<path d="M1905.61 467.887C1902.8 469.941 1899.7 471.589 1896.32 472.831C1892.94 474.026 1889.27 474.623 1885.31 474.623C1877.74 474.623 1871.93 472.521 1867.88 468.317C1863.83 464.065 1861.8 457.687 1861.8 449.184V415.79H1847.3V405.113H1861.8V383.759H1873.52V405.113H1902.03V415.79H1873.52V448.969C1873.52 453.889 1874.67 457.568 1876.95 460.004C1879.29 462.441 1882.41 463.659 1886.31 463.659C1888.74 463.659 1891.15 463.253 1893.53 462.441C1895.96 461.629 1898.18 460.506 1900.18 459.073L1905.61 467.887Z" fill="white"/>
<path d="M1981.08 438.936C1981.08 439.653 1981.04 440.465 1980.94 441.373C1980.89 442.281 1980.87 442.925 1980.87 443.308H1927.49C1928.02 447.894 1929.35 451.763 1931.49 454.916C1933.69 458.069 1936.42 460.434 1939.71 462.011C1943 463.587 1946.62 464.376 1950.57 464.376C1954.43 464.376 1958.15 463.683 1961.72 462.297C1965.29 460.864 1968.56 458.858 1971.51 456.278L1977.73 464.304C1973.72 468.03 1969.41 470.682 1964.79 472.258C1960.22 473.835 1955.24 474.623 1949.86 474.623C1943.19 474.623 1937.23 473.142 1931.99 470.18C1926.8 467.218 1922.73 463.062 1919.78 457.711C1916.87 452.313 1915.42 446.126 1915.42 439.151C1915.42 432.272 1916.87 426.157 1919.78 420.807C1922.68 415.408 1926.68 411.204 1931.78 408.194C1936.93 405.185 1942.71 403.68 1949.14 403.68C1955.24 403.68 1960.7 405.185 1965.51 408.194C1970.37 411.156 1974.15 415.313 1976.87 420.663C1979.63 425.966 1981.04 432.057 1981.08 438.936ZM1969.15 433.849C1968.67 429.883 1967.53 426.42 1965.72 423.458C1963.91 420.448 1961.55 418.131 1958.65 416.507C1955.79 414.883 1952.55 414.071 1948.93 414.071C1945.02 414.071 1941.57 414.907 1938.57 416.579C1935.57 418.203 1933.14 420.52 1931.28 423.53C1929.47 426.492 1928.26 429.931 1927.64 433.849H1969.15Z" fill="white"/>
<path d="M2084.7 403.68C2090.23 403.68 2095.14 404.827 2099.42 407.12C2103.71 409.365 2107.05 412.542 2109.43 416.65C2111.81 420.759 2113 425.512 2113 430.911V473.19H2101.28V434.709C2101.28 430.552 2100.54 426.993 2099.07 424.031C2097.59 421.022 2095.45 418.728 2092.64 417.152C2089.87 415.575 2086.54 414.787 2082.63 414.787C2078.87 414.787 2075.46 415.623 2072.41 417.295C2069.41 418.92 2067.03 421.284 2065.27 424.39C2063.51 427.447 2062.62 430.982 2062.62 434.995V473.19H2050.91V434.709C2050.91 430.552 2050.17 426.993 2048.69 424.031C2047.21 421.022 2045.07 418.728 2042.26 417.152C2039.5 415.575 2036.16 414.787 2032.26 414.787C2028.49 414.787 2025.09 415.623 2022.04 417.295C2018.99 418.92 2016.58 421.284 2014.82 424.39C2013.06 427.447 2012.18 430.982 2012.18 434.995V473.19H2000.53V405.113H2012.11V413.999C2014.73 410.368 2017.99 407.741 2021.89 406.116C2025.85 404.492 2029.99 403.68 2034.33 403.68C2040.04 403.68 2045.07 404.898 2049.41 407.335C2053.79 409.723 2057.12 413.067 2059.41 417.367C2061.98 412.59 2065.53 409.126 2070.06 406.976C2074.63 404.779 2079.51 403.68 2084.7 403.68Z" fill="white"/>
<path d="M401.518 213.941L304.37 45.7248C304.106 45.1928 303.696 44.7477 303.187 44.4422C302.678 44.1366 302.092 43.9836 301.499 44.0014C300.894 44.001 300.299 44.1603 299.775 44.4628C299.251 44.7654 298.816 45.2005 298.513 45.7248L201.48 213.941C201.174 214.448 201.008 215.028 201 215.62C200.992 216.212 201.142 216.796 201.435 217.311C201.727 217.826 202.151 218.254 202.664 218.55C203.177 218.846 203.759 219.001 204.351 218.997H398.533C399.134 219.022 399.731 218.883 400.26 218.595C400.789 218.308 401.231 217.882 401.537 217.363C401.843 216.844 402.003 216.252 402 215.649C401.997 215.047 401.83 214.457 401.518 213.941ZM238.341 196.017L301.499 86.6303L364.657 196.017H238.341Z" fill="#E05929"/>
<path d="M37 311C37 328.998 42.3077 346.592 52.252 361.557C62.1962 376.522 76.3304 388.185 92.8671 395.073C109.404 401.96 127.6 403.763 145.156 400.251C162.711 396.74 178.837 388.073 191.493 375.346C204.15 362.62 212.769 346.405 216.261 328.753C219.753 311.101 217.961 292.804 211.111 276.176C204.261 259.548 192.662 245.335 177.779 235.336C162.896 225.337 145.399 220 127.5 220C103.507 220.031 80.5059 229.628 63.5405 246.687C46.575 263.746 37.0304 286.875 37 311V311ZM195.375 311C195.375 324.526 191.385 337.748 183.909 348.993C176.433 360.239 165.807 369.001 153.377 374.172C140.947 379.343 127.27 380.69 114.079 378.043C100.887 375.396 88.7724 368.873 79.2684 359.3C69.7644 349.728 63.2981 337.536 60.6877 324.267C58.0773 310.998 59.4402 297.247 64.6038 284.757C69.7674 272.267 78.4996 261.598 89.6956 254.1C100.892 246.602 114.048 242.611 127.5 242.634C145.512 242.665 162.776 249.881 175.502 262.699C188.228 275.517 195.375 292.888 195.375 311V311Z" fill="white"/>
<path d="M5.91639e-07 3.35061V181.649C-0.000266671 182.099 0.0900169 182.544 0.265383 182.958C0.440748 183.372 0.697739 183.746 1.02085 184.059C1.34396 184.371 1.72665 184.616 2.14613 184.777C2.5656 184.938 3.01316 185.014 3.46229 184.998H181.653C182.541 184.998 183.392 184.645 184.02 184.017C184.647 183.389 185 182.537 185 181.649V3.35061C185 2.46243 184.647 1.61079 184.02 0.982754C183.392 0.354719 182.541 0.00199237 181.653 0.00199237H3.46229C3.01316 -0.0135135 2.5656 0.0616142 2.14613 0.222954C1.72665 0.384295 1.34396 0.628288 1.02085 0.940817C0.697739 1.25335 0.440748 1.62773 0.265383 2.04175C0.0900169 2.45577 -0.000266671 2.90094 5.91639e-07 3.35061V3.35061ZM23.0817 68.8269V22.6356H162.842V162.595H22.6202L23.0817 68.8269Z" fill="white"/>
</svg>
